<?xml version="1.0" encoding="UTF-8" standalone="no"?>
<!-- Created with Inkscape (http://www.inkscape.org/) -->

<svg
   width="30.080185mm"
   height="30.117704mm"
   viewBox="0 0 30.080185 30.117704"
   version="1.1"
   id="svg1"
   xml:space="preserve"
   xmlns="http://www.w3.org/2000/svg"
   xmlns:svg="http://www.w3.org/2000/svg"><defs
     id="defs1" /><g
     id="layer1"
     transform="translate(-52.642091,-24.053535)"><path
       style="fill:currentColor"
       d="M 53.500969,53.339085 C 53.107796,52.774623 52.64211,51.885891 52.64211,48.306051 v -3.68171 l 1.23388,-0.58551 c 2.31221,-1.09722 2.7958,-3.91171 0.94038,-5.47295 -0.62116,-0.52267 -1.879237,-0.980582 -2.166577,-0.980582 0,-1.370164 -0.0077,-0.738838 -0.0077,-3.852187 0,-3.801722 0.0223,-3.904783 1.07297,-4.95544 1.035,-1.034993 1.19614,-1.072973 4.55247,-1.072973 h 3.47948 l 0.38114,-1.093319 c 0.20962,-0.601326 0.9278,-1.426615 1.59595,-1.833976 2.31529,-1.41159 4.6596,-0.711806 5.66336,1.690525 l 0.51676,1.23677 h 3.51047 c 3.39057,0 3.54712,0.03665 4.58344,1.072973 1.03499,1.034992 1.07298,1.196137 1.07298,4.552461 v 3.479489 l 1.09331,0.381133 c 0.60133,0.209624 1.42662,0.927806 1.83398,1.595956 1.41159,2.31528 0.71181,4.6596 -1.69052,5.66336 l -1.23677,0.51675 v 3.51047 c 0,3.39057 -0.0228,3.769523 -0.773225,4.669094 -0.470581,0.564105 -0.867169,0.97153 -1.372725,0.987326 -2.702101,0.08443 -11.068543,0 -11.068543,0 0,0 -10.351003,0.05335 -11.06856,0 -0.717557,-0.05335 -0.893917,-0.230164 -1.287091,-0.794626 z M 75.7675,40.919201 v -9.910875 h -9.91088 -9.91088 v 1.950207 c 0,1.700487 0.14486,2.088258 1.13127,3.028324 2.90056,2.764264 2.90729,7.144864 0.0152,9.864694 -1.00471,0.94485 -1.14642,1.31919 -1.14642,3.02833 v 1.9502 h 9.91088 9.91088 z"
       id="path2" /></g></svg>
