<?xml version="1.0" encoding="UTF-8" standalone="no"?>
<!-- Created with Inkscape (http://www.inkscape.org/) -->

<svg
   width="66.572906mm"
   height="65.971382mm"
   viewBox="0 0 66.572906 65.971382"
   version="1.1"
   id="svg1"
   xml:space="preserve"
   xmlns="http://www.w3.org/2000/svg"
   xmlns:svg="http://www.w3.org/2000/svg"><defs
     id="defs1" /><g
     id="layer1"
     transform="translate(-31.626931,-199.14956)"><path
       id="path1"
       style="fill:currentColor"
       d="m 70.598275,199.1496 c -5.015991,-0.002 -6.181371,0.0771 -8.428426,0.57464 -5.586905,1.23708 -10.863518,3.3701 -14.79548,5.98 -4.916879,3.26364 -9.526627,8.55922 -11.477852,13.18576 -3.146538,7.46072 -0.671622,13.62442 5.774841,14.38207 2.963776,0.34834 6.180459,-1.0361 8.627897,-3.71399 1.177866,-1.28877 2.204293,-3.37987 1.838648,-3.74551 -0.08654,-0.0865 -0.5953,-0.0129 -1.130681,0.16382 -1.32633,0.43773 -3.672749,0.21023 -4.563028,-0.44235 -1.259331,-0.9231 -1.689789,-2.09481 -1.566313,-4.26589 0.163988,-2.88344 1.646269,-5.7212 4.504634,-8.6248 3.516057,-3.57169 7.059655,-5.62845 11.931572,-6.92516 2.379334,-0.63329 7.212239,-1.23298 8.44703,-1.048 0.314887,0.0472 1.50756,0.16242 2.650484,0.25632 1.142924,0.0939 3.051145,0.49758 4.240051,0.8971 7.743903,2.60225 11.768261,10.091 10.756449,20.01635 -0.677789,6.64876 -2.902335,13.12898 -6.17585,17.99167 -1.569526,2.33147 -4.80921,5.45318 -6.797518,6.54999 -2.795467,1.54204 -4.356527,1.8742 -8.054805,1.71307 -2.763929,-0.12043 -6.885584,-0.75779 -7.248654,-1.12086 -0.06577,-0.0658 0.32687,-1.04474 0.872299,-2.17558 1.98265,-4.11067 3.371278,-8.14031 6.498311,-18.85725 3.352466,-11.48954 5.158086,-15.47707 8.824784,-19.48821 0.81907,-0.89601 1.489315,-1.82186 1.489315,-2.05724 0,-1.81076 -5.871727,-0.27171 -9.882084,2.59002 -1.96059,1.39905 -4.973093,4.52159 -6.290055,6.52053 -2.161073,3.28019 -3.877462,7.41317 -5.384685,12.96407 -0.533423,1.96453 -1.937266,7.00299 -3.119706,11.19622 -2.018965,7.15975 -2.183071,7.61254 -2.693376,7.4414 -0.298868,-0.10024 -1.983379,-0.23837 -3.742924,-0.30747 -2.414222,-0.0948 -3.607707,-0.0213 -4.864819,0.30075 -5.103141,1.30736 -8.637621,4.534 -9.158097,8.3597 -0.450242,3.30944 1.997526,6.52737 5.609993,7.37526 2.500158,0.58683 5.830248,0.2519 8.594308,-0.86455 2.672201,-1.07934 4.491751,-2.31655 6.963916,-4.73511 l 2.374532,-2.32285 1.650028,0.66042 c 5.780288,2.31401 12.120869,2.58621 17.922937,0.76946 9.769386,-3.059 17.716105,-11.64557 21.465874,-23.19496 1.521161,-4.68523 2.059333,-8.34068 1.915645,-13.01264 -0.138166,-4.49241 -0.476447,-6.03905 -2.034501,-9.31158 -1.245268,-2.61555 -2.575884,-4.43762 -4.814693,-6.59288 -3.117477,-3.00113 -6.579964,-4.83596 -11.761556,-6.23166 -3.090121,-0.83236 -3.253478,-0.84808 -8.968445,-0.85008 z m -26.891382,55.2111 c 1.420048,-0.0805 3.222131,0.0916 3.549137,0.41858 0.375435,0.37543 -1.589408,2.22917 -3.24838,3.06493 -2.475003,1.24685 -4.291273,1.02155 -4.445724,-0.55139 -0.06416,-0.65344 0.105409,-0.97687 0.856796,-1.63659 0.51501,-0.45219 1.443583,-0.95919 2.063956,-1.12706 0.319761,-0.0865 0.750865,-0.14164 1.224215,-0.16847 z" /></g></svg>
