<?xml version="1.0" encoding="UTF-8" standalone="no"?>
<!-- Created with Inkscape (http://www.inkscape.org/) -->

<svg
   width="66.572914mm"
   height="66.274132mm"
   viewBox="0 0 66.572914 66.274132"
   version="1.1"
   id="svg1"
   xml:space="preserve"
   xmlns="http://www.w3.org/2000/svg"
   xmlns:svg="http://www.w3.org/2000/svg"><defs
     id="defs1" /><g
     id="layer1"
     transform="translate(-111.45127,-108.05793)"><path
       id="path1"
       style="fill:currentColor"
       d="m 150.42261,108.05793 c -3.68368,-0.001 -6.18137,0.3799 -8.42842,0.87744 -5.58691,1.23708 -10.86352,3.3701 -14.79548,5.98 -4.91688,3.26364 -9.52663,8.55922 -11.47786,13.18576 -3.14653,7.46072 -0.67162,13.62442 5.77484,14.38207 2.96378,0.34834 6.18046,-1.0361 8.6279,-3.71399 1.17787,-1.28877 2.20429,-3.37987 1.83865,-3.74551 -0.0865,-0.0865 -0.5953,-0.0129 -1.13068,0.16382 -1.32633,0.43773 -3.67275,0.21023 -4.56303,-0.44235 -1.25933,-0.9231 -1.68979,-2.09481 -1.56631,-4.26589 0.16399,-2.88344 1.64627,-5.7212 4.50463,-8.6248 3.51606,-3.57169 7.05966,-5.62845 11.93157,-6.92516 2.37934,-0.63329 5.84965,-1.2027 8.44703,-1.048 0.31784,0.0189 1.50756,0.16242 2.65049,0.25632 1.14292,0.0939 3.05114,0.49758 4.24005,0.8971 7.7439,2.60225 11.76826,10.091 10.75645,20.01635 -0.67779,6.64876 -2.90234,13.12898 -6.17585,17.99167 -1.56953,2.33147 -4.80921,5.45318 -6.79752,6.54999 -2.79547,1.54204 -4.35653,1.8742 -8.05481,1.71307 -2.76392,-0.12043 -6.88558,-0.75779 -7.24865,-1.12086 -0.0658,-0.0658 0.32687,-1.04474 0.8723,-2.17558 1.98265,-4.11067 3.37128,-8.14031 6.49831,-18.85725 3.35247,-11.48954 5.15809,-15.47707 8.82478,-19.48821 0.81907,-0.89601 1.48932,-1.82186 1.48932,-2.05724 0,-1.81076 -5.87173,-0.27171 -9.88208,2.59002 -1.96059,1.39905 -4.9731,4.52159 -6.29006,6.52053 -2.16107,3.28019 -3.87746,7.41317 -5.38468,12.96407 -0.53343,1.96453 -1.93727,7.00299 -3.11971,11.19622 -2.01897,7.15975 -2.18307,7.61254 -2.69338,7.4414 -0.29886,-0.10024 -1.98338,-0.23837 -3.74292,-0.30747 -2.41422,-0.0948 -3.60771,-0.0213 -4.86482,0.30075 -5.10314,1.30736 -8.63762,4.534 -9.1581,8.3597 -0.45024,3.30944 1.99753,6.52737 5.61,7.37526 2.50015,0.58683 5.83024,0.2519 8.5943,-0.86455 2.67221,-1.07934 4.49176,-2.31655 6.96392,-4.73511 l 2.37453,-2.32285 1.65003,0.66042 c 5.78029,2.31401 12.12087,2.58621 17.92294,0.76946 9.76938,-3.059 17.7161,-11.64557 21.46587,-23.19496 1.52116,-4.68523 2.05933,-8.34068 1.91565,-13.01264 -0.13817,-4.49241 -0.47645,-6.03905 -2.0345,-9.31158 -1.24527,-2.61555 -2.57589,-4.43762 -4.8147,-6.59288 -3.11747,-3.00113 -6.57996,-4.83596 -11.76155,-6.23166 -3.09012,-0.83236 -4.16188,-1.1512 -8.96845,-1.15288 z m -26.89138,55.5139 c 1.42005,-0.0805 3.22213,0.0916 3.54914,0.41858 0.37543,0.37543 -1.58941,2.22917 -3.24838,3.06493 -2.47501,1.24685 -4.29128,1.02155 -4.44573,-0.55139 -0.0642,-0.65344 0.10541,-0.97687 0.8568,-1.63659 0.51501,-0.45219 1.44358,-0.95919 2.06395,-1.12706 0.31977,-0.0865 0.75087,-0.14164 1.22422,-0.16847 z" /></g></svg>
