<?xml version="1.0" encoding="UTF-8" standalone="no"?>
<!-- Created with Inkscape (http://www.inkscape.org/) -->

<svg
   width="208.79935mm"
   height="99.855385mm"
   viewBox="0 0 208.79935 99.855385"
   version="1.1"
   id="svg1"
   xml:space="preserve"
   xmlns="http://www.w3.org/2000/svg"
   xmlns:svg="http://www.w3.org/2000/svg"><defs
     id="defs1" /><g
     id="layer1"
     transform="translate(-0.85478928,-105.9735)"><path
       style="fill:currentColor"
       d="m 21.305725,205.38836 c -0.780581,-0.86313 -1.991141,-3.63026 -2.319738,-5.30251 -1.178831,-5.99915 2.5536,-11.02511 10.064792,-13.55291 6.948003,-2.33826 51.473826,-10.04104 82.550001,-14.2808 4.29286,-0.58568 8.80352,-1.21287 10.02367,-1.39375 l 2.21846,-0.32888 0.90113,-3.96875 c 0.49563,-2.18281 1.12633,-4.96785 1.40156,-6.18898 l 0.50042,-2.22023 -1.10647,1.04603 c -1.39511,1.3189 -2.6323,2.21969 -4.14919,3.02098 -1.00002,0.52827 -1.57836,0.62968 -3.61266,0.63349 -2.31823,0.004 -2.46561,-0.0307 -3.4384,-0.81742 -0.559,-0.45208 -1.29324,-1.35999 -1.63165,-2.01758 l -0.61529,-1.19563 -1.37027,1.32346 c -1.99483,1.92668 -3.81894,3.25126 -5.61204,4.07519 -2.10447,0.96702 -5.485794,1.04902 -7.135314,0.17305 -1.61636,-0.85836 -3.56831,-3.23309 -3.57089,-4.34431 -5.6e-4,-0.24311 -1.28657,0.84954 -2.99031,2.54069 -3.66323,3.63616 -5.60973,4.73969 -8.38776,4.75533 -2.213583,0.0125 -2.952212,-0.20775 -4.111776,-1.22586 -1.735118,-1.52346 -2.105964,-2.58728 -2.105691,-6.0405 2.06e-4,-2.60968 0.107413,-3.3816 0.753298,-5.42396 1.150361,-3.63756 2.765518,-7.61633 3.766819,-9.27916 0.85185,-1.41464 0.86891,-1.4889 0.30743,-1.33842 -0.326949,0.0876 -1.441482,0.16094 -2.476738,0.16293 l -1.882283,0.004 -0.466477,1.25677 c -0.256563,0.69122 -0.861722,2.20927 -1.344799,3.37344 -0.483077,1.16416 -1.786496,4.31932 -2.896487,7.01146 -3.365336,8.16217 -5.546784,11.96425 -7.654068,13.34039 -1.952781,1.27524 -4.114226,0.72904 -4.114226,-1.03967 0,-0.30037 1.388527,-3.04208 3.085617,-6.0927 3.484727,-6.26399 6.624599,-12.64611 8.299723,-16.87006 l 1.132953,-2.85682 -0.936522,-0.97963 c -3.157875,-3.30325 -1.001296,-9.3162 3.340168,-9.31302 2.357026,0.002 3.599742,1.17118 3.973053,3.73885 0.327692,2.25389 1.458778,2.6212 5.541326,1.79953 3.30627,-0.66543 4.40528,-0.55098 5.53244,0.57618 0.72685,0.72685 0.77669,0.89933 0.67323,2.32966 -0.0947,1.30939 -0.50314,2.32547 -2.68111,6.67006 -3.23632,6.45576 -3.95737,9.14543 -2.96579,11.06293 1.02696,1.98593 3.73523,1.23611 5.85124,-1.62001 1.64825,-2.22476 1.91236,-2.9055 2.75293,-7.09569 0.78974,-3.93683 1.47426,-5.83928 3.21105,-8.92433 1.54822,-2.75009 5.824014,-7.11168 7.933854,-8.09303 3.9808,-1.85161 8.09933,-1.62446 10.58612,0.58385 l 1.15826,1.02856 0.52917,-1.4918 c 0.67792,-1.91116 1.60757,-2.41987 4.78436,-2.61807 3.90521,-0.24363 4.05326,0.4144 1.72109,7.64998 -2.6248,8.14347 -4.03772,13.23385 -4.1837,15.0728 -0.12236,1.54127 -0.0713,1.82062 0.4232,2.31511 0.76072,0.76072 1.49616,0.70465 3.14263,-0.23959 3.19005,-1.82947 5.37373,-5.88198 7.23268,-13.42255 0.7081,-2.87232 1.29018,-5.28757 1.2935,-5.36722 0.003,-0.0797 -0.76422,-0.0958 -1.70563,-0.0358 -1.61236,0.10266 -1.72893,0.0711 -2.00945,-0.54461 -0.23138,-0.50783 -0.20146,-1.03088 0.13419,-2.3454 0.57006,-2.23251 1.027,-2.65568 3.08251,-2.85469 l 1.65308,-0.16005 0.33644,-1.32291 c 0.18504,-0.72761 0.81154,-3.24669 1.39221,-5.59796 1.68811,-6.83557 3.53412,-10.51005 6.86245,-13.65972 3.9399,-3.72843 9.59219,-4.62003 12.44122,-1.96251 1.32359,1.23463 1.69986,2.44738 1.58366,5.10427 -0.0976,2.23174 -0.20336,2.63746 -1.22463,4.69848 -1.15065,2.32209 -2.8246,4.14139 -3.81053,4.14139 -0.76079,0 -0.80659,-0.55228 -0.22107,-2.66523 0.93166,-3.36199 0.66559,-4.7431 -0.91373,-4.7431 -1.88011,0 -3.63827,2.42417 -4.99248,6.88368 -0.71345,2.34946 -2.03288,7.74259 -1.92148,7.854 0.0356,0.0356 0.47467,-0.0467 0.97581,-0.18273 2.05199,-0.5571 3.95079,-0.72491 4.40926,-0.38968 0.53527,0.39141 0.50036,2.48107 -0.0595,3.5638 -0.4899,0.94736 -1.21594,1.26601 -4.09315,1.7964 l -2.50668,0.46208 -2.44812,9.91612 c -3.45727,14.0037 -6.38073,26.04793 -6.33519,26.10001 0.0213,0.0244 0.63397,-0.0673 1.36146,-0.20365 1.12343,-0.21059 3.83838,-0.52594 9.92167,-1.15242 5.769,-0.59411 13.73782,-1.21527 14.75272,-1.14995 1.07913,0.0694 1.29999,0.18438 1.61256,0.83918 0.50745,1.06308 0.11542,2.26466 -0.93999,2.88106 -0.87623,0.51174 -5.75498,1.60457 -14.36696,3.21817 -5.76099,1.07942 -25.33599,4.90195 -33.46979,6.53586 -7.7013,1.54703 -20.148614,4.21866 -30.294794,6.50232 -4.874947,1.09723 -9.577916,2.15312 -10.451041,2.34641 -14.093027,3.11992 -39.126055,10.21524 -43.127081,12.22387 -1.660629,0.83368 -4.07497,2.46684 -4.737361,3.20455 -0.612675,0.68233 -1.257359,0.71722 -1.817068,0.0983 z m 85.552435,-48.10802 c 1.87435,-0.94252 4.3595,-4.87275 5.80196,-9.17569 1.29504,-3.8632 2.50352,-8.75455 2.29633,-9.29447 -0.2834,-0.73853 -1.82617,-1.48384 -3.0737,-1.48489 -4.08544,-0.003 -8.12426,5.69546 -9.44009,13.32027 -0.65669,3.8053 -0.11321,6.20396 1.56847,6.92257 0.87813,0.37523 1.69214,0.29295 2.84703,-0.28779 z m 63.08324,28.90144 c -2.7629,-0.72175 -4.90074,-2.41989 -6.26506,-4.97649 -0.53546,-1.0034 -0.6141,-1.52352 -0.6141,-4.0612 0,-2.63315 0.0704,-3.06085 0.73938,-4.48948 1.84136,-3.93248 4.92681,-6.59947 10.0908,-8.72225 1.69473,-0.69666 4.83177,-1.41369 8.21694,-1.87815 3.3971,-0.46609 3.57525,-0.5159 3.57381,-0.99917 -0.002,-0.62381 2.70837,-10.90426 2.93942,-11.1498 0.13008,-0.13824 0.23652,-0.3624 0.23652,-0.49813 0,-0.13572 -0.93433,0.64589 -2.0763,1.73691 -3.53306,3.37547 -6.9439,4.98729 -9.74215,4.60375 -2.67548,-0.36672 -4.58308,-2.10726 -5.22337,-4.76595 l -0.18358,-0.76228 -1.84298,2.0001 c -5.05454,5.4855 -10.25823,7.57234 -14.5337,5.82847 -1.3142,-0.53603 -2.513,-1.78951 -3.21566,-3.36231 -0.50508,-1.13057 -0.60221,-1.79113 -0.58812,-4.00004 0.0165,-2.58805 0.39882,-4.46213 2.32097,-11.37708 0.20225,-0.72761 0.67042,-2.45401 1.04038,-3.83646 0.36995,-1.38245 0.74858,-2.71132 0.8414,-2.95305 0.14801,-0.38547 0.0444,-0.41064 -0.84271,-0.20475 -1.63824,0.38023 -3.15273,0.29913 -3.55876,-0.19056 -0.49715,-0.59958 -0.42031,-2.67881 0.13858,-3.75009 0.57719,-1.10637 1.7067,-1.59139 4.19606,-1.80182 l 1.92069,-0.16236 1.16877,-4.39837 c 0.64282,-2.41911 1.32968,-4.78898 1.52635,-5.26638 0.6197,-1.50424 2.28091,-2.1446 6.69705,-2.58156 1.50326,-0.14875 1.78286,-0.10449 2.19134,0.34688 0.45067,0.49798 0.41304,0.70849 -1.00398,5.61598 -0.80971,2.80423 -1.42601,5.1448 -1.36955,5.20126 0.0565,0.0565 1.1445,-0.0642 2.41787,-0.26809 1.27337,-0.2039 2.54981,-0.30939 2.83653,-0.23441 1.71454,0.44836 0.81477,4.64615 -1.14209,5.32831 -0.44815,0.15623 -1.84393,0.41156 -3.10174,0.56741 -1.25781,0.15585 -2.3615,0.36599 -2.45265,0.46696 -0.0911,0.10098 -0.4652,1.31469 -0.83124,2.69714 -0.36603,1.38245 -1.15814,4.28193 -1.76024,6.4433 -1.28112,4.59887 -1.75838,7.35874 -1.50557,8.70633 0.20612,1.09871 1.22166,2.04829 2.19059,2.04829 1.13269,0 3.13669,-1.24826 4.67973,-2.91493 2.37491,-2.56519 4.04637,-6.29964 5.85984,-13.09236 3.07699,-11.52548 2.84875,-10.95343 4.56761,-11.44764 1.58264,-0.45505 5.77517,-0.93985 6.5172,-0.75361 1.16047,0.29126 1.11731,1.11713 -0.32321,6.184 -3.29214,11.5798 -4.00627,14.42693 -4.01138,15.99282 -0.005,1.54007 0.3879,2.44468 1.22819,2.82754 1.63479,0.74486 3.30885,0.003 5.57437,-2.46904 2.66882,-2.91255 3.57869,-5.21055 6.30937,-15.9351 1.74625,-6.8583 2.08031,-7.78477 2.98075,-8.26667 0.57337,-0.30686 4.40291,-0.81668 6.13454,-0.81668 1.40892,0 1.8458,0.33457 1.8458,1.41354 0,0.70673 -2.48459,10.42236 -5.8296,22.79583 -1.37013,5.06825 -3.95998,14.95456 -3.95998,15.11656 0,0.60072 7.89424,-1.35086 10.68674,-2.64193 2.47041,-1.14216 3.16974,-1.20064 3.75088,-0.31371 0.40183,0.61327 0.38772,0.73715 -0.24025,2.10882 -1.66686,3.6409 -5.97547,6.0184 -12.97711,7.1608 -1.29339,0.21103 -2.44869,0.32369 -2.56734,0.25036 -0.11865,-0.0733 -0.34692,0.37629 -0.50725,0.99914 -1.51987,5.90408 -4.10389,10.65702 -7.62042,14.0167 -2.37963,2.27348 -4.11189,3.33395 -7.06124,4.32281 -2.53711,0.85063 -6.38445,1.10595 -8.46714,0.56189 z m 6.39272,-6.24195 c 1.96128,-0.89051 4.33964,-3.75001 5.68632,-6.83666 0.65961,-1.51184 2.06468,-5.88095 1.89127,-5.88095 -0.41071,0 -4.68097,1.17392 -5.89185,1.61971 -1.65882,0.61069 -4.38064,2.47 -5.41456,3.69874 -1.19474,1.41986 -1.82887,2.91396 -1.81336,4.27247 0.0333,2.91514 2.69763,4.41826 5.54218,3.12669 z M 6.4909417,179.36975 c -6.07931504,-1.43227 -7.594608,-8.2195 -2.797885,-12.53217 1.54607,-1.39005 3.923613,-2.59723 6.3288413,-3.21342 1.28643,-0.32957 2.429165,-0.3986 4.865018,-0.29389 1.75101,0.0753 3.42896,0.21582 3.728777,0.31234 0.617292,0.19873 0.864918,-0.57303 4.878959,-15.20581 2.070805,-7.54891 2.984678,-10.22999 4.535231,-13.30528 2.600085,-5.15688 6.930423,-9.52556 11.492251,-11.59399 3.243798,-1.47081 6.461978,-1.80391 6.461978,-0.66885 0,0.20578 -0.865819,1.38475 -1.924041,2.61993 -3.489647,4.0732 -5.175638,7.95712 -8.774663,20.21364 -2.806941,9.55907 -4.062658,13.22288 -5.766681,16.82545 -0.740417,1.56536 -1.284897,2.90743 -1.209954,2.98237 0.375611,0.37561 4.15698,0.96084 7.100054,1.09885 2.691633,0.12621 3.612479,0.0697 4.894792,-0.30055 7.376133,-2.12959 13.460279,-10.67275 15.742347,-22.1049 0.856476,-4.29057 0.869177,-9.5881 0.0301,-12.55578 -1.631559,-5.77059 -5.369511,-9.82832 -10.488831,-11.38612 -5.79444,-1.76324 -12.760782,-1.30095 -18.903395,1.25445 -4.106374,1.7083 -8.51963,5.32371 -10.744933,8.80242 -2.457071,3.84102 -2.599114,8.07681 -0.326706,9.7425 0.870265,0.63791 3.267605,0.88766 4.476243,0.46633 0.600321,-0.20927 0.942874,-0.21576 1.137097,-0.0215 0.449691,0.44969 -1.067698,3.02187 -2.614113,4.43128 -4.89453,4.46089 -11.7746243,3.65793 -14.2199883,-1.65958 -0.514012,-1.11773 -0.604382,-1.73329 -0.582658,-3.96875 0.02229,-2.29418 0.139655,-2.95283 0.883023,-4.9557 2.34224,-6.31073 8.6397923,-12.82324 15.9691703,-16.51426 2.362876,-1.18992 7.268966,-2.81269 10.681684,-3.53313 3.34193,-0.70549 9.912015,-0.98133 13.186242,-0.55361 6.912429,0.90299 12.605436,3.4938 16.426151,7.47531 2.307839,2.40497 3.141256,3.5733 4.334832,6.07683 1.741086,3.65194 1.994106,4.97863 1.986678,10.41706 -0.0071,5.22645 -0.374158,7.52517 -1.975274,12.37152 -1.034524,3.13136 -3.651177,8.43202 -5.218513,10.57136 -2.905317,3.96561 -6.419521,7.27298 -10.262207,9.65821 -4.134146,2.56614 -10.378539,4.04468 -15.582046,3.68948 -2.683895,-0.1832 -6.732157,-1.18259 -8.609045,-2.1253 l -1.229511,-0.61755 -1.575016,1.72846 c -4.547206,4.99021 -11.194067,7.58335 -16.3340103,6.37239 z m 6.5008523,-6.86345 c 0.610515,-0.28922 1.764871,-1.10621 2.565236,-1.81552 l 1.455208,-1.28965 -1.058333,-0.29423 c -1.330433,-0.36988 -3.14265,-0.37669 -4.439003,-0.0167 -1.4322,0.39773 -2.8370383,1.70615 -2.8370383,2.64233 0,1.6107 1.8477293,1.94212 4.3139303,0.77376 z"
       id="path1" /></g></svg>
